<svg width="220" height="30" viewBox="0 0 220 30" fill="none" xmlns="http://www.w3.org/2000/svg">
<path d="M82.913 8.21518C83.6518 8.21518 84.399 8.21518 85.1546 8.22345C85.9102 8.23173 86.649 8.24828 87.371 8.27311C88.0929 8.29793 88.773 8.34759 89.411 8.41379L89.2683 10.5819H84.0212C83.6938 10.5819 83.442 10.6647 83.2824 10.8385C83.1145 11.0123 83.039 11.2522 83.039 11.5833V18.4518C83.039 18.7745 83.1229 19.0228 83.2824 19.1966C83.4503 19.3704 83.6938 19.4531 84.0212 19.4531H89.2683L89.411 21.6213C88.7814 21.6709 88.0929 21.7123 87.371 21.7454C86.6406 21.7785 85.9018 21.7951 85.1546 21.8033C84.4074 21.8116 83.6518 21.8116 82.913 21.8116C82.0399 21.8116 81.3347 21.5633 80.8058 21.0585C80.2685 20.5538 79.9999 19.8917 79.9999 19.089V10.9295C79.9999 10.1102 80.2685 9.44821 80.8058 8.95996C81.3347 8.46344 82.0399 8.21518 82.913 8.21518ZM80.3525 13.6769H88.5295V15.7871H80.3525V13.6769Z" fill="#133D65"/>
<path d="M103.112 8.27295V20.6694C103.112 21.3894 102.751 21.7452 102.021 21.7452H100.358C100.031 21.7452 99.7791 21.6708 99.6028 21.5218C99.4349 21.3729 99.2753 21.1494 99.1242 20.8515L95.3379 13.7843C95.1784 13.4864 95.0273 13.1554 94.8762 12.7913C94.7251 12.4272 94.5992 12.0713 94.49 11.7403H94.2717C94.3137 12.0879 94.3473 12.4437 94.3725 12.8078C94.3977 13.172 94.4145 13.5195 94.4145 13.8754V21.7618H91.5433V9.34875C91.5433 8.63707 91.9127 8.27295 92.6515 8.27295H94.2969C94.616 8.27295 94.8594 8.34743 95.0189 8.49638C95.1784 8.64534 95.3463 8.86878 95.5059 9.16669L99.1662 16.0187C99.3257 16.3166 99.4852 16.6476 99.6615 17.0117C99.8294 17.3759 99.9973 17.7565 100.157 18.1455H100.392C100.35 17.7565 100.325 17.3759 100.3 17.0035C100.274 16.6311 100.266 16.267 100.266 15.9028L100.249 8.27295H103.112Z" fill="#133D65"/>
<path d="M116.998 8.27295L113.27 20.926C113.203 21.1577 113.077 21.3563 112.884 21.5135C112.691 21.6708 112.464 21.7452 112.204 21.7452H109.434C109.157 21.7452 108.921 21.6708 108.728 21.5135C108.535 21.3563 108.418 21.166 108.359 20.926L104.615 8.27295H107.746L110.24 17.9965C110.29 18.2448 110.349 18.493 110.407 18.7496C110.466 19.0061 110.517 19.2544 110.559 19.5026H111.071C111.113 19.2544 111.163 18.9978 111.222 18.7413C111.281 18.4848 111.348 18.2282 111.406 17.98L113.883 8.28122H116.998V8.27295Z" fill="#133D65"/>
<path d="M123.806 8C124.889 8 125.804 8.11586 126.56 8.33929C127.316 8.571 127.92 8.94339 128.373 9.47302C128.827 10.0026 129.163 10.7143 129.372 11.6246C129.582 12.5266 129.691 13.6604 129.691 15.0092C129.691 16.3581 129.582 17.4918 129.372 18.3939C129.163 19.2959 128.827 20.0158 128.373 20.5372C127.92 21.0668 127.316 21.4392 126.56 21.6709C125.804 21.9026 124.889 22.0102 123.806 22.0102C122.723 22.0102 121.808 21.8943 121.053 21.6709C120.297 21.4475 119.693 21.0668 119.231 20.5372C118.769 20.0076 118.433 19.2959 118.223 18.3939C118.014 17.4918 117.904 16.3581 117.904 15.0092C117.904 13.6604 118.014 12.5266 118.223 11.6246C118.433 10.7226 118.769 10.0026 119.231 9.47302C119.693 8.94339 120.297 8.571 121.053 8.33929C121.808 8.11586 122.723 8 123.806 8ZM123.806 10.3585C123.11 10.3585 122.564 10.4992 122.169 10.7722C121.775 11.0453 121.506 11.517 121.338 12.1873C121.17 12.8576 121.095 13.801 121.095 15.0092C121.095 16.2092 121.179 17.1443 121.338 17.8229C121.506 18.5014 121.783 18.9731 122.169 19.2462C122.555 19.5193 123.101 19.66 123.806 19.66C124.495 19.66 125.032 19.5193 125.418 19.2462C125.804 18.9731 126.081 18.5014 126.249 17.8229C126.417 17.1443 126.493 16.2092 126.493 15.0092C126.493 13.801 126.409 12.8576 126.249 12.1873C126.081 11.517 125.804 11.0453 125.418 10.7722C125.032 10.4992 124.495 10.3585 123.806 10.3585Z" fill="#133D65"/>
<path d="M142.31 8.27295L137.692 17.4669H134.838L130.204 8.27295H133.352L135.652 13.2299C135.77 13.4864 135.871 13.7678 135.946 14.0657C136.022 14.3636 136.097 14.6533 136.164 14.9263H136.366C136.441 14.6533 136.525 14.3636 136.601 14.0657C136.676 13.7678 136.769 13.4864 136.878 13.2299L139.153 8.27295H142.31ZM137.768 15.6546V21.7452H134.737V15.6546H137.768Z" fill="#133D65"/>
<path d="M148.052 8.0166C148.724 8.0166 149.454 8.0497 150.252 8.12418C151.041 8.19866 151.813 8.33934 152.569 8.56278L152.367 10.5406C151.788 10.524 151.108 10.5158 150.327 10.4992C149.547 10.4827 148.783 10.4827 148.027 10.4827C147.658 10.4827 147.347 10.4909 147.087 10.5158C146.827 10.5406 146.625 10.5902 146.466 10.673C146.306 10.7557 146.197 10.8882 146.13 11.0537C146.063 11.2192 146.029 11.4592 146.029 11.7571C146.029 12.2122 146.138 12.5432 146.356 12.7501C146.575 12.957 146.944 13.1473 147.473 13.3128L150.109 14.1486C151.209 14.5128 151.964 15.0093 152.384 15.6299C152.804 16.2506 153.014 17.0781 153.014 18.0877C153.014 18.8573 152.922 19.4945 152.737 19.9993C152.552 20.5041 152.258 20.9013 151.864 21.191C151.469 21.4806 150.949 21.6792 150.302 21.8034C149.656 21.9275 148.867 21.9854 147.926 21.9854C147.473 21.9854 146.835 21.9523 146.004 21.8944C145.173 21.8365 144.224 21.6875 143.149 21.4558L143.351 19.3456C144.132 19.3621 144.803 19.3787 145.383 19.3952C145.953 19.4118 146.449 19.4283 146.86 19.4366C147.271 19.4449 147.624 19.4449 147.926 19.4449C148.455 19.4449 148.867 19.4118 149.16 19.3456C149.454 19.2794 149.664 19.147 149.782 18.9566C149.899 18.758 149.958 18.4849 149.958 18.1208C149.958 17.8064 149.916 17.5581 149.832 17.3678C149.748 17.1774 149.605 17.0285 149.412 16.9209C149.219 16.8133 148.959 16.714 148.632 16.6147L145.861 15.6796C144.82 15.2989 144.081 14.8107 143.645 14.1983C143.208 13.5859 142.99 12.7832 142.99 11.7819C142.99 11.004 143.082 10.3668 143.275 9.87856C143.468 9.39031 143.762 9.00965 144.165 8.73656C144.568 8.46347 145.089 8.27314 145.727 8.17383C146.382 8.07453 147.154 8.0166 148.052 8.0166Z" fill="#133D65"/>
<path d="M170.115 8.27295L166.396 20.926C166.329 21.1577 166.203 21.3563 166.01 21.5135C165.817 21.6708 165.59 21.7452 165.33 21.7452H162.559C162.282 21.7452 162.047 21.6708 161.854 21.5135C161.661 21.3563 161.543 21.166 161.485 20.926L157.732 8.27295H160.863L163.357 17.9965C163.407 18.2448 163.466 18.493 163.525 18.7496C163.583 19.0061 163.634 19.2544 163.676 19.5026H164.188C164.23 19.2544 164.28 18.9978 164.339 18.7413C164.398 18.4848 164.465 18.2282 164.524 17.98L167 8.28122H170.115V8.27295Z" fill="#133D65"/>
<path d="M174.666 8.27295V21.7452H171.652V8.27295H174.666Z" fill="#133D65"/>
<path d="M181.935 8.0166C182.607 8.0166 183.337 8.0497 184.135 8.12418C184.924 8.19866 185.696 8.33934 186.452 8.56278L186.25 10.5323C185.671 10.5158 184.991 10.5075 184.21 10.4909C183.438 10.4827 182.666 10.4827 181.919 10.4827C181.549 10.4827 181.239 10.4909 180.978 10.5158C180.718 10.5406 180.517 10.5902 180.357 10.673C180.197 10.7557 180.088 10.8882 180.021 11.0537C179.954 11.2192 179.92 11.4592 179.92 11.7571C179.92 12.2122 180.03 12.5432 180.248 12.7501C180.466 12.957 180.836 13.1473 181.364 13.3128L184.001 14.1486C185.092 14.5128 185.856 15.0093 186.276 15.6299C186.695 16.2506 186.905 17.0781 186.905 18.0877C186.905 18.8573 186.813 19.4945 186.628 19.9993C186.444 20.5041 186.15 20.9013 185.755 21.191C185.361 21.4806 184.84 21.6792 184.194 21.8034C183.547 21.9275 182.758 21.9854 181.818 21.9854C181.364 21.9854 180.726 21.9523 179.895 21.8944C179.064 21.8365 178.115 21.6875 177.041 21.4558L177.242 19.3456C178.023 19.3621 178.695 19.3787 179.274 19.3952C179.845 19.4118 180.34 19.4283 180.752 19.4366C181.163 19.4449 181.516 19.4449 181.818 19.4449C182.347 19.4449 182.758 19.4118 183.052 19.3456C183.346 19.2794 183.556 19.147 183.673 18.9566C183.791 18.758 183.849 18.4849 183.849 18.1208C183.849 17.8064 183.807 17.5581 183.724 17.3678C183.64 17.1774 183.497 17.0285 183.304 16.9209C183.111 16.8133 182.85 16.714 182.523 16.6147L179.753 15.6796C178.712 15.2989 177.973 14.8107 177.536 14.1983C177.1 13.5859 176.881 12.7832 176.881 11.7819C176.881 11.004 176.974 10.3668 177.167 9.87856C177.36 9.39031 177.654 9.00965 178.057 8.73656C178.46 8.46347 178.98 8.27314 179.618 8.17383C180.256 8.07453 181.037 8.0166 181.935 8.0166Z" fill="#133D65"/>
<path d="M192.06 8.27295V21.7452H189.046V8.27295H192.06Z" fill="#133D65"/>
<path d="M200.254 8C201.337 8 202.252 8.11586 203.008 8.33929C203.763 8.571 204.368 8.94339 204.821 9.47302C205.275 10.0026 205.61 10.7143 205.82 11.6246C206.03 12.5266 206.139 13.6604 206.139 15.0092C206.139 16.3581 206.03 17.4918 205.82 18.3939C205.61 19.2959 205.275 20.0158 204.821 20.5372C204.368 21.0668 203.763 21.4392 203.008 21.6709C202.252 21.9026 201.337 22.0102 200.254 22.0102C199.171 22.0102 198.256 21.8943 197.501 21.6709C196.745 21.4475 196.14 21.0668 195.679 20.5372C195.217 20.0076 194.881 19.2959 194.671 18.3939C194.461 17.4918 194.352 16.3581 194.352 15.0092C194.352 13.6604 194.461 12.5266 194.671 11.6246C194.881 10.7226 195.217 10.0026 195.679 9.47302C196.14 8.94339 196.745 8.571 197.501 8.33929C198.256 8.11586 199.171 8 200.254 8ZM200.254 10.3585C199.557 10.3585 199.012 10.4992 198.617 10.7722C198.223 11.0453 197.954 11.517 197.786 12.1873C197.618 12.8576 197.542 13.801 197.542 15.0092C197.542 16.2092 197.626 17.1443 197.786 17.8229C197.954 18.5014 198.231 18.9731 198.617 19.2462C199.003 19.5193 199.549 19.66 200.254 19.66C200.943 19.66 201.48 19.5193 201.866 19.2462C202.252 18.9731 202.529 18.5014 202.697 17.8229C202.865 17.1443 202.941 16.2092 202.941 15.0092C202.941 13.801 202.857 12.8576 202.697 12.1873C202.529 11.517 202.252 11.0453 201.866 10.7722C201.48 10.4992 200.943 10.3585 200.254 10.3585Z" fill="#133D65"/>
<path d="M220 8.27295V20.6694C220 21.3894 219.639 21.7452 218.909 21.7452H217.246C216.919 21.7452 216.667 21.6708 216.491 21.5218C216.315 21.3729 216.163 21.1494 216.012 20.8515L212.226 13.7843C212.067 13.4864 211.915 13.1554 211.764 12.7913C211.613 12.4272 211.487 12.0713 211.378 11.7403H211.16C211.202 12.0879 211.235 12.4437 211.261 12.8078C211.286 13.172 211.303 13.5195 211.303 13.8754V21.7618H208.431V9.34875C208.431 8.63707 208.801 8.27295 209.54 8.27295H211.185C211.504 8.27295 211.739 8.34743 211.907 8.49638C212.075 8.64534 212.234 8.86878 212.394 9.16669L216.054 16.0187C216.214 16.3166 216.382 16.6476 216.55 17.0117C216.718 17.3759 216.885 17.7565 217.045 18.1455H217.28C217.238 17.7565 217.213 17.3759 217.188 17.0035C217.163 16.6311 217.154 16.267 217.154 15.9028L217.137 8.27295H220Z" fill="#133D65"/>
<path d="M29.9977 0C28.715 0 27.4704 0.173205 26.2893 0.515174C21.3743 1.89193 17.505 5.95115 16.1926 11.1073C15.8666 12.3464 15.7015 13.6521 15.7015 14.9978C15.7015 20.5448 18.576 25.3945 22.8433 27.9837C21.6156 25.7765 20.9171 23.2095 20.9171 20.4737C20.9171 19.9319 20.9425 19.3945 21.0018 18.8705C21.7045 11.8712 27.009 6.30644 33.6808 5.56921C34.1803 5.50703 34.6926 5.48038 35.2091 5.48038C37.8168 5.48038 40.2637 6.21317 42.3677 7.50111C39.9081 3.01554 35.2853 0 29.9977 0Z" fill="#045599"/>
<path d="M43.8071 11.1073C42.6768 15.5485 39.6457 19.1769 35.6874 20.9756C33.9433 21.775 32.0213 22.2147 29.9977 22.2147C26.5899 22.2147 23.4571 20.9623 21.006 18.866C20.9467 19.3901 20.9213 19.9275 20.9213 20.4693C20.9213 23.205 21.6198 25.772 22.8475 27.9793C23.9186 28.6366 25.0701 29.1429 26.2935 29.4848C27.4746 29.8268 28.7193 30 30.002 30C37.9015 30 44.3024 23.2805 44.3024 14.9978C44.2982 13.6521 44.1331 12.3464 43.8071 11.1073Z" fill="#4478BB"/>
<path d="M43.8071 11.1073C42.6768 15.5485 39.6457 19.1769 35.6875 20.9756C36.4537 19.1458 36.8728 17.1206 36.8728 14.9978C36.8728 11.4226 35.679 8.14063 33.6851 5.56476C34.1846 5.50258 34.6968 5.47594 35.2133 5.47594C37.8211 5.47594 40.268 6.20873 42.372 7.49666C43.0028 8.61583 43.4854 9.82827 43.8071 11.1073Z" fill="#F48020"/>
<path d="M11.8492 15.0022C11.8492 11.3072 12.8567 7.85641 14.5924 4.93857C7.45913 8.77573 2.70079 13.9586 -0.00012207 17.4449C1.70171 19.9141 4.66932 23.547 9.3049 26.3716C12.4461 28.2857 15.6762 29.4049 18.8216 29.9956C14.5797 26.5093 11.8492 21.091 11.8492 15.0022Z" fill="#02519E"/>
<path d="M59.9999 12.5551C58.298 10.0859 55.3304 6.453 50.6949 3.63286C47.5537 1.71873 44.3236 0.599554 41.1782 0.00888062C45.42 3.49519 48.1506 8.9134 48.1506 15.0022C48.1506 18.6973 47.143 22.148 45.4073 25.0659C52.5406 21.2287 57.299 16.0415 59.9999 12.5551Z" fill="#F48020"/>
</svg>
