<svg width="97" height="30" viewBox="0 0 97 30" fill="none" xmlns="http://www.w3.org/2000/svg">
<path d="M27.7892 21.2616C27.6372 20.896 27.4946 20.5116 27.3425 20.1835L26.6392 18.6178L26.6107 18.5897C24.5198 14.0897 22.2864 9.51472 19.9199 5.01472L19.8248 4.82722C19.5872 4.38659 19.3496 3.89909 19.1025 3.44909C18.7984 2.91472 18.5038 2.34284 18.0191 1.79909C17.5466 1.23015 16.952 0.77177 16.2781 0.45702C15.6043 0.14227 14.868 -0.0209961 14.1224 -0.0209961C13.3768 -0.0209961 12.6406 0.14227 11.9667 0.45702C11.2928 0.77177 10.6982 1.23015 10.2258 1.79909C9.77907 2.34284 9.44643 2.91472 9.1423 3.44909C8.9047 3.93659 8.6671 4.41472 8.42 4.85534L8.32496 5.04284C5.99647 9.54284 3.725 14.1178 1.63411 18.6178L1.57709 18.6741C1.368 19.1616 1.1209 19.6678 0.883296 20.2116C0.731231 20.5397 0.579166 20.896 0.427102 21.2897C0.0165583 22.3208 -0.114541 23.4396 0.0467238 24.5358C0.207989 25.632 0.656052 26.6679 1.34675 27.5414C2.03746 28.4148 2.94696 29.0956 3.98563 29.5167C5.02429 29.9378 6.15628 30.0847 7.27001 29.9428C8.33776 29.8042 9.36591 29.4534 10.2923 28.9116C11.5278 28.2272 12.7158 27.2335 14.0464 25.7991C15.377 27.2335 16.5935 28.2272 17.8005 28.921C18.9612 29.593 20.2757 29.9639 21.6211 29.9991C23.1791 30.0055 24.6869 29.4556 25.8661 28.451C27.0452 27.4464 27.8161 26.0549 28.0363 24.5335C28.2909 23.4401 28.2048 22.2965 27.7892 21.2522V21.2616ZM14.1414 22.8178C12.5067 20.7553 11.4423 18.8616 11.0811 17.2397C10.9315 16.6387 10.8992 16.0151 10.9861 15.4022C11.0526 14.9241 11.2332 14.5022 11.4803 14.146C12.0505 13.3303 13.0485 12.8241 14.1414 12.8241C14.6605 12.8085 15.1753 12.9202 15.6398 13.1493C16.1043 13.3783 16.5038 13.7176 16.8026 14.1366C17.0497 14.5116 17.2302 14.9241 17.2873 15.4022C17.3823 15.946 17.3443 16.5741 17.1922 17.2397C16.8311 18.8335 15.7666 20.746 14.1414 22.8178ZM26.2496 24.2053C26.1416 24.9778 25.8303 25.7088 25.3467 26.3257C24.8631 26.9425 24.2241 27.4236 23.4934 27.721C22.7711 28.021 21.9728 28.1053 21.1934 28.021C20.4331 27.9272 19.6728 27.6835 18.8934 27.2335C17.5995 26.4446 16.4359 25.4644 15.4435 24.3272C17.4393 21.8897 18.6463 19.6678 19.1025 17.6897C19.3211 16.7522 19.3496 15.9085 19.2546 15.1303C19.1359 14.3928 18.8571 13.6893 18.4373 13.0678C17.9579 12.394 17.318 11.8467 16.5739 11.474C15.8298 11.1013 15.0043 10.9146 14.1699 10.9303C12.4117 10.9303 10.8435 11.7366 9.89312 13.0585C9.46529 13.6783 9.18879 14.3875 9.08528 15.1303C8.96173 15.9178 8.99024 16.7897 9.23734 17.6897C9.69354 19.6678 10.9291 21.9178 12.8964 24.346C11.9208 25.5049 10.7545 26.4937 9.44643 27.271C8.6576 27.721 7.90678 27.9553 7.14646 28.0491C5.96404 28.1985 4.76964 27.8815 3.82286 27.167C2.87608 26.4525 2.25345 25.3983 2.09031 24.2335C1.99527 23.4835 2.0618 22.7335 2.36593 21.8897C2.46097 21.5897 2.60353 21.2897 2.75559 20.9335C2.96468 20.446 3.21178 19.9397 3.44939 19.4335L3.4874 19.3678C5.54027 14.896 7.78323 10.3303 10.1117 5.85847L10.2068 5.67097C10.4444 5.22097 10.682 4.74284 10.9291 4.29284C11.1762 3.81472 11.4423 3.35534 11.7844 2.98034C12.0806 2.63161 12.4506 2.35116 12.8685 2.15873C13.2864 1.96631 13.742 1.86658 14.2032 1.86658C14.6644 1.86658 15.12 1.96631 15.5379 2.15873C15.9558 2.35116 16.3258 2.63161 16.622 2.98034C16.9546 3.35534 17.2302 3.81472 17.4773 4.29284C17.7149 4.74284 17.9525 5.23034 18.1997 5.67097L18.2947 5.85847C20.6137 10.3303 22.8566 14.896 24.9475 19.3678L24.976 19.396C25.2231 19.8835 25.4322 20.4272 25.6698 20.896C25.8219 21.2616 25.974 21.5522 26.069 21.8616C26.2496 22.7053 26.3446 23.4553 26.2496 24.2053ZM39.4792 22.6116C38.763 22.6219 38.0537 22.4731 37.4038 22.1761C36.7539 21.8791 36.1802 21.4416 35.7251 20.896C34.7025 19.7334 34.1598 18.2345 34.2045 16.696C34.1888 15.124 34.749 13.5993 35.7821 12.4022C36.26 11.8497 36.8548 11.4072 37.5248 11.1059C38.1947 10.8046 38.9235 10.6519 39.6598 10.6585C40.3525 10.6398 41.0388 10.7952 41.6539 11.11C42.2691 11.4249 42.7929 11.8889 43.1763 12.4585L43.2713 10.9866H46.0465V22.3116H43.2618L43.1668 20.6616C42.7715 21.2697 42.2253 21.7681 41.5799 22.1094C40.9345 22.4507 40.2114 22.6235 39.4792 22.6116ZM40.2015 19.9116C40.7527 19.9116 41.2374 19.7616 41.6936 19.4897C42.1118 19.1897 42.454 18.796 42.7201 18.3178C42.9577 17.8397 43.0812 17.2678 43.0812 16.6303C43.1183 16.0767 43.009 15.523 42.7641 15.0234C42.5192 14.5238 42.1471 14.0955 41.6841 13.7803C41.2393 13.5069 40.7256 13.362 40.2015 13.362C39.6774 13.362 39.1637 13.5069 38.7189 13.7803C38.3007 14.0803 37.9585 14.4741 37.6924 14.9522C37.4411 15.4795 37.3175 16.0572 37.3313 16.6397C37.2942 17.1934 37.4035 17.7471 37.6484 18.2467C37.8933 18.7462 38.2654 19.1745 38.7284 19.4897C39.1751 19.7616 39.6598 19.9116 40.2015 19.9116ZM50.7985 7.93034C50.7985 8.25847 50.7415 8.55847 50.5894 8.80222C50.4373 9.03659 50.2283 9.25222 49.9526 9.40222C49.677 9.55222 49.3824 9.60847 49.0783 9.60847C48.7741 9.60847 48.47 9.55222 48.1944 9.40222C47.9337 9.25907 47.7145 9.05252 47.5576 8.80222C47.4104 8.53516 47.3383 8.23415 47.3485 7.93034C47.3485 7.59284 47.4151 7.29284 47.5576 7.05847C47.7097 6.77722 47.9283 6.60847 48.1944 6.45847C48.47 6.30847 48.7646 6.24284 49.0783 6.24284C49.3808 6.23597 49.6799 6.30664 49.9465 6.44796C50.213 6.58928 50.4378 6.79641 50.5989 7.04909C50.7372 7.32242 50.8057 7.62494 50.7985 7.93034ZM47.5671 22.2741V10.9678H50.5894V22.2928H47.5576L47.5671 22.2741ZM58.6678 13.9303V13.9678C58.5253 13.9022 58.3352 13.8741 58.1926 13.846C58.0026 13.8085 57.8505 13.8085 57.6699 13.8085C56.8241 13.8085 56.1873 14.0522 55.7691 14.5585C55.3129 15.0741 55.1038 15.796 55.1038 16.7241V22.2835H52.072V10.9585H54.8567L54.9518 12.6741C55.2559 12.0741 55.617 11.6241 56.1303 11.2866C56.6408 10.9587 57.2417 10.7949 57.8505 10.8178C58.0691 10.8178 58.2782 10.8366 58.4588 10.8741C58.5538 10.9022 58.6108 10.9022 58.6678 10.9303V13.9303ZM59.8844 22.2741V6.31784H62.9067V12.4116C63.3343 11.8678 63.819 11.446 64.4273 11.1178C65.3902 10.6521 66.4842 10.52 67.5326 10.7428C68.581 10.9657 69.5227 11.5304 70.2057 12.346C71.2306 13.5109 71.7734 15.0136 71.7264 16.5553C71.742 18.1273 71.1818 19.6521 70.1487 20.8491C69.6709 21.4016 69.076 21.8441 68.4061 22.1454C67.7361 22.4467 67.0073 22.5994 66.2711 22.5928C65.5783 22.6115 64.8921 22.4562 64.2769 22.1413C63.6618 21.8264 63.1379 21.3624 62.7546 20.7928L62.6595 22.2647L59.8844 22.2928V22.2741ZM65.7293 19.9116C66.2711 19.9116 66.7558 19.7616 67.212 19.4897C67.6302 19.1897 67.9723 18.796 68.2384 18.3178C68.4855 17.8397 68.5996 17.2678 68.5996 16.6303C68.5996 16.0022 68.4855 15.4303 68.2384 14.9522C67.9888 14.4912 67.6382 14.0909 67.212 13.7803C66.7671 13.5069 66.2535 13.362 65.7293 13.362C65.2052 13.362 64.6916 13.5069 64.2467 13.7803C63.819 14.0803 63.4864 14.4741 63.2108 14.9522C62.9594 15.4795 62.8358 16.0572 62.8496 16.6397C62.8126 17.1934 62.9218 17.7471 63.1667 18.2467C63.4116 18.7462 63.7837 19.1745 64.2467 19.4897C64.6934 19.7616 65.1781 19.9116 65.7293 19.9116ZM72.8669 22.2835V10.9585H75.6516L75.7466 12.4303C76.0965 11.8661 76.5929 11.4044 77.1844 11.0929C77.7759 10.7814 78.4411 10.6314 79.111 10.6585C79.8771 10.6454 80.6302 10.8555 81.2759 11.2623C81.9216 11.6692 82.4315 12.2548 82.7416 12.946C83.0742 13.6585 83.2548 14.5397 83.2548 15.5241V22.3116H80.223V15.9178C80.223 15.1303 80.0424 14.5116 79.6813 14.0522C79.3201 13.6022 78.8259 13.3585 78.1986 13.3585C77.7424 13.3585 77.3433 13.4522 76.9916 13.6585C76.659 13.8741 76.3834 14.146 76.1743 14.5303C75.9629 14.9189 75.858 15.3552 75.8702 15.796V22.2835H72.8669ZM84.7659 22.2835V6.30847H87.7977V12.4022C88.2084 11.8554 88.7426 11.4106 89.3579 11.103C89.9733 10.7955 90.6529 10.6336 91.3427 10.6303C92.0589 10.62 92.7682 10.7689 93.4181 11.0659C94.068 11.3629 94.6418 11.8004 95.0968 12.346C96.1143 13.5108 96.6534 15.009 96.608 16.546C96.6245 18.1181 96.0641 19.6431 95.0303 20.8397C94.5524 21.3923 93.9576 21.8348 93.2876 22.136C92.6177 22.4373 91.8889 22.59 91.1526 22.5835C90.4599 22.6022 89.7736 22.4468 89.1585 22.1319C88.5433 21.817 88.0195 21.353 87.6362 20.7835L87.5506 22.2553L84.7659 22.2835ZM90.6394 19.9116C91.1907 19.9116 91.6754 19.7616 92.1221 19.4897C92.5497 19.1897 92.8824 18.796 93.158 18.3178C93.3956 17.8397 93.5191 17.2678 93.5191 16.6303C93.5562 16.0767 93.4469 15.523 93.202 15.0234C92.9572 14.5238 92.585 14.0955 92.1221 13.7803C91.6772 13.5069 91.1636 13.362 90.6394 13.362C90.1153 13.362 89.6016 13.5069 89.1568 13.7803C88.7386 14.0803 88.3965 14.4741 88.1304 14.9522C87.8651 15.4748 87.7407 16.056 87.7692 16.6397C87.7322 17.1934 87.8414 17.7471 88.0863 18.2467C88.3312 18.7462 88.7033 19.1745 89.1663 19.4897C89.613 19.7616 90.0692 19.9116 90.6394 19.9116Z" fill="#FF385C"/>
</svg>
