<svg width="80" height="28" viewBox="0 0 80 28" fill="none" xmlns="http://www.w3.org/2000/svg">
<path d="M65.4719 27.7248C72.9809 27.7248 79.0909 21.5403 79.0909 13.9398C79.0909 6.33479 72.9809 0.154785 65.4719 0.154785C57.9613 0.154785 51.8529 6.33479 51.8529 13.9398C51.8529 21.5403 57.9613 27.7248 65.4719 27.7248ZM65.4719 9.02429C68.1479 9.02429 70.3273 11.2293 70.3273 13.9383C70.3273 16.6473 68.1464 18.8493 65.4704 18.8493C62.7928 18.8493 60.6164 16.6473 60.6164 13.9368C60.6164 11.2248 62.7943 9.02129 65.4704 9.02129L65.4719 9.02429ZM14.0896 27.7248C21.5987 27.7248 27.7086 21.5403 27.7086 13.9398C27.7086 6.33479 21.5987 0.154785 14.0896 0.154785C6.58198 0.154785 0.470581 6.33479 0.470581 13.9398C0.470581 21.5403 6.58198 27.7248 14.0896 27.7248ZM14.0896 9.02429C16.7671 9.02429 18.945 11.2293 18.945 13.9383C18.945 16.6473 16.7671 18.8493 14.0896 18.8493C11.4135 18.8493 9.23716 16.6473 9.23716 13.9368C9.23716 11.2248 11.415 9.02129 14.0896 9.02129V9.02429ZM39.7733 8.71379L35.5921 0.334785H25.8022L34.9462 18.6648V27.2943H44.6018V18.6648L53.7458 0.334785H43.9514L39.7748 8.71379H39.7733Z" fill="#EE2E24"/>
</svg>
