<svg width="116" height="26" viewBox="0 0 116 26" fill="none" xmlns="http://www.w3.org/2000/svg">
<g clip-path="url(#clip0_106_983)">
<path d="M41.1186 14.8516L40.4342 16.779H40.3772C40.2632 16.3444 40.054 15.683 39.7118 14.8894L36.0428 5.72518H32.4498V20.3313H34.8261V11.3182C34.8261 10.7513 34.8261 10.1089 34.8071 9.31529C34.7881 8.91849 34.7501 8.61617 34.7311 8.38942H34.7881C34.9022 8.95628 35.0353 9.37198 35.1303 9.63651L39.5407 20.2935H41.2137L45.5861 9.54204C45.6811 9.2964 45.7762 8.80512 45.8713 8.38942H45.9283C45.8713 9.46646 45.8332 10.4301 45.8142 11.0159V20.2746H48.3426V5.68739H44.8827L41.1186 14.8516ZM50.7379 9.80657H53.2093V20.2746H50.7379V9.80657ZM51.9926 5.38506C51.5744 5.38506 51.2322 5.53622 50.9471 5.80076C50.6619 6.06529 50.5098 6.40541 50.5098 6.82111C50.5098 7.21791 50.6619 7.55803 50.9471 7.82256C51.2322 8.0871 51.5744 8.21936 51.9926 8.21936C52.4109 8.21936 52.7721 8.0682 53.0382 7.82256C53.3234 7.55803 53.4755 7.21791 53.4755 6.82111C53.4755 6.4243 53.3234 6.08419 53.0382 5.80076C52.7911 5.53622 52.4299 5.38506 51.9926 5.38506ZM61.9732 9.7121C61.5169 9.61762 61.0416 9.56093 60.5854 9.56093C59.4638 9.56093 58.4372 9.80657 57.5817 10.2979C56.7263 10.7891 56.0419 11.4694 55.6046 12.3197C55.1484 13.1888 54.9203 14.1903 54.9203 15.3429C54.9203 16.3444 55.1484 17.2324 55.5856 18.0449C56.0229 18.8385 56.6312 19.481 57.4487 19.9156C58.2281 20.3502 59.1406 20.5769 60.1672 20.5769C61.3458 20.5769 62.3534 20.3313 63.1518 19.8778L63.1708 19.8589V17.5915L63.0758 17.667C62.7146 17.9316 62.2963 18.1583 61.8781 18.2906C61.4409 18.4417 61.0416 18.5173 60.6995 18.5173C59.7109 18.5173 58.9315 18.2339 58.3802 17.6104C57.8099 17.0057 57.5247 16.1743 57.5247 15.1351C57.5247 14.058 57.8099 13.2077 58.3992 12.5842C58.9885 11.9606 59.7679 11.6394 60.7185 11.6394C61.5169 11.6394 62.3344 11.904 63.0758 12.433L63.1708 12.5086V10.1089L63.1518 10.09C62.8286 9.95774 62.4674 9.80657 61.9732 9.7121ZM70.1287 9.63651C69.5203 9.63651 68.95 9.82547 68.4557 10.2223C68.0375 10.5624 67.7524 11.0537 67.5052 11.6394H67.4862V9.80657H65.0148V20.2746H67.4862V14.9272C67.4862 14.0202 67.6763 13.2644 68.0945 12.7165C68.5128 12.1496 69.0451 11.8662 69.6914 11.8662C69.9196 11.8662 70.1477 11.9229 70.4328 11.9606C70.699 12.0362 70.8891 12.1118 71.0222 12.2063L71.1172 12.2819V9.82547L71.0602 9.80657C70.8891 9.6932 70.5469 9.63651 70.1287 9.63651ZM76.8584 9.57983C75.1284 9.57983 73.7407 10.09 72.7711 11.0915C71.7826 12.0929 71.3073 13.4723 71.3073 15.2106C71.3073 16.8356 71.8016 18.1583 72.7521 19.122C73.7027 20.0667 74.9954 20.558 76.6113 20.558C78.3032 20.558 79.6529 20.0479 80.6225 19.0275C81.611 18.0072 82.0863 16.6467 82.0863 14.965C82.0863 13.3022 81.63 11.9795 80.6985 11.0159C79.805 10.0522 78.4933 9.57983 76.8584 9.57983ZM78.8355 17.6292C78.3792 18.215 77.6568 18.4984 76.7633 18.4984C75.8699 18.4984 75.1474 18.215 74.6342 17.5915C74.1209 17.0057 73.8737 16.1554 73.8737 15.0784C73.8737 13.9635 74.1399 13.1133 74.6342 12.5086C75.1474 11.904 75.8508 11.6016 76.7443 11.6016C77.6188 11.6016 78.3032 11.8851 78.7975 12.4708C79.2917 13.0566 79.5579 13.9069 79.5579 15.0217C79.5199 16.1554 79.3108 17.0435 78.8355 17.6292ZM87.5993 14.1525C86.8199 13.8313 86.3256 13.5856 86.0975 13.3778C85.9074 13.1888 85.8123 12.9243 85.8123 12.5842C85.8123 12.3008 85.9264 12.0173 86.2116 11.8284C86.4967 11.6394 86.8199 11.5449 87.2952 11.5449C87.7134 11.5449 88.1506 11.6205 88.5689 11.7339C88.9871 11.8473 89.3673 12.0173 89.6715 12.2441L89.7665 12.3197V10.0144L89.7095 9.99553C89.4243 9.88215 89.0441 9.76878 88.5879 9.67431C88.1316 9.59872 87.7134 9.56093 87.3712 9.56093C86.1926 9.56093 85.223 9.84436 84.4626 10.4679C83.7022 11.0537 83.341 11.8473 83.341 12.7731C83.341 13.2644 83.417 13.699 83.5881 14.058C83.7592 14.417 84.0064 14.7572 84.3485 15.0406C84.6907 15.3051 85.185 15.6074 85.8694 15.8909C86.4397 16.1365 86.8769 16.3255 87.1431 16.4766C87.4092 16.6278 87.5803 16.7979 87.7134 16.9301C87.8085 17.0813 87.8655 17.2702 87.8655 17.5159C87.8655 18.215 87.3332 18.5551 86.2496 18.5551C85.8314 18.5551 85.3941 18.4795 84.8808 18.3095C84.3675 18.1394 83.8923 17.8938 83.4931 17.6104L83.398 17.5348V19.9345L83.455 19.9534C83.8162 20.1234 84.2535 20.2368 84.7858 20.3691C85.3181 20.4635 85.7933 20.5391 86.2116 20.5391C87.4853 20.5391 88.5309 20.2557 89.2723 19.6322C90.0327 19.0275 90.4319 18.2528 90.4319 17.2513C90.4319 16.5522 90.2418 15.9287 89.8236 15.4563C89.2723 15.0028 88.5879 14.5304 87.5993 14.1525ZM96.9525 9.57983C95.2226 9.57983 93.8348 10.09 92.8652 11.0915C91.8957 12.0929 91.4014 13.4723 91.4014 15.2106C91.4014 16.8356 91.8957 18.1583 92.8462 19.122C93.7968 20.0667 95.0895 20.558 96.7054 20.558C98.3973 20.558 99.7471 20.0479 100.717 19.0275C101.705 18.0072 102.18 16.6467 102.18 14.965C102.18 13.3022 101.724 11.9795 100.793 11.0159C99.8991 10.0522 98.5874 9.57983 96.9525 9.57983ZM98.9106 17.6292C98.4543 18.215 97.7319 18.4984 96.8384 18.4984C95.9259 18.4984 95.2226 18.215 94.7093 17.5915C94.196 17.0057 93.9489 16.1554 93.9489 15.0784C93.9489 13.9635 94.215 13.1133 94.7093 12.5086C95.2226 11.904 95.9259 11.6016 96.8194 11.6016C97.6749 11.6016 98.3783 11.8851 98.8726 12.4708C99.3668 13.0566 99.633 13.9069 99.633 15.0217C99.633 16.1554 99.3859 17.0435 98.9106 17.6292ZM115.393 11.8284V9.80657H112.902V6.70774L112.826 6.72663L110.469 7.42576L110.412 7.44465V9.80657H106.686V8.4839C106.686 7.87925 106.838 7.40686 107.104 7.10454C107.37 6.80221 107.77 6.65105 108.264 6.65105C108.606 6.65105 108.967 6.72663 109.366 6.89669L109.461 6.95337V4.8182L109.404 4.79931C109.062 4.68593 108.606 4.61035 108.017 4.61035C107.275 4.61035 106.629 4.78041 106.04 5.06384C105.45 5.38506 105.013 5.81965 104.69 6.40541C104.367 6.97227 104.196 7.61471 104.196 8.35163V9.80657H102.466V11.8095H104.196V20.2746H106.686V11.8284H110.412V17.2136C110.412 19.4243 111.458 20.5391 113.549 20.5391C113.891 20.5391 114.252 20.4824 114.594 20.4258C114.955 20.3502 115.222 20.2557 115.374 20.1801L115.393 20.1612V18.1394L115.298 18.215C115.146 18.3095 115.013 18.3851 114.784 18.4417C114.594 18.4984 114.423 18.5173 114.29 18.5173C113.796 18.5173 113.454 18.404 113.207 18.1205C112.978 17.856 112.864 17.4214 112.864 16.779V11.8284H115.393Z" fill="#737373"/>
<path d="M0.588257 0.8125H12.2417V12.3953H0.588257V0.8125Z" fill="#F25022"/>
<path d="M13.4583 0.8125H25.1117V12.3953H13.4583V0.8125Z" fill="#7FBA00"/>
<path d="M0.588257 13.6045H12.2417V25.1873H0.588257V13.6045Z" fill="#00A4EF"/>
<path d="M13.4583 13.6045H25.1117V25.1873H13.4583V13.6045Z" fill="#FFB900"/>
</g>
<defs>
<clipPath id="clip0_106_983">
<rect width="114.824" height="24.375" fill="white" transform="translate(0.588257 0.8125)"/>
</clipPath>
</defs>
</svg>
