<svg width="97" height="30" viewBox="0 0 97 30" fill="none" xmlns="http://www.w3.org/2000/svg">
<g clip-path="url(#clip0_106_964)">
<path fill-rule="evenodd" clip-rule="evenodd" d="M60.1404 23.4607C54.5069 27.7248 46.3416 29.9998 39.3115 29.9998C29.4541 29.9998 20.5799 26.2558 13.8662 20.0287C13.3387 19.539 13.8113 18.8717 14.4443 19.253C21.6897 23.5821 30.6483 26.1864 39.9023 26.1864C46.1433 26.1864 53.0089 24.8604 59.3217 22.1087C60.2754 21.6927 61.0729 22.7501 60.1404 23.4607Z" fill="#FF9900"/>
<path fill-rule="evenodd" clip-rule="evenodd" d="M62.4827 20.709C61.7653 19.7644 57.7228 20.2627 55.9083 20.4837C55.3555 20.553 55.2711 20.059 55.769 19.7037C58.9887 17.3767 64.2719 18.0483 64.888 18.8283C65.504 19.6127 64.7276 25.0511 61.702 27.6468C61.2379 28.0454 60.7948 27.8331 61.0015 27.3044C61.6809 25.5624 63.2043 21.658 62.4827 20.709Z" fill="#FF9900"/>
<path fill-rule="evenodd" clip-rule="evenodd" d="M56.0347 3.27592V1.0139C56.0347 0.671563 56.2879 0.441895 56.5918 0.441895H66.4534C66.7699 0.441895 67.0231 0.675897 67.0231 1.0139V2.95092C67.0189 3.27592 66.753 3.70059 66.2804 4.37227L61.1702 11.8647C63.0691 11.817 65.0735 12.1073 66.7952 13.104C67.1834 13.3294 67.2889 13.6587 67.3185 13.9837V16.3974C67.3185 16.7267 66.964 17.1124 66.5927 16.9131C63.5586 15.2794 59.5287 15.1017 56.174 16.9304C55.8322 17.1211 55.4735 16.7397 55.4735 16.4104V14.118C55.4735 13.7497 55.4777 13.1214 55.8364 12.5624L61.7568 3.8436H56.6044C56.2879 3.8436 56.0347 3.61393 56.0347 3.27592Z" fill="black"/>
<path fill-rule="evenodd" clip-rule="evenodd" d="M20.0608 17.39H17.0606C16.7736 17.3684 16.5458 17.1474 16.5247 16.8657V1.0532C16.5247 0.736864 16.7821 0.485526 17.1028 0.485526H19.9005C20.1917 0.498518 20.4237 0.728195 20.4448 1.0142V3.08122H20.4997C21.2297 1.08353 22.6012 0.151855 24.4494 0.151855C26.3272 0.151855 27.5003 1.08353 28.3443 3.08122C29.0701 1.08353 30.72 0.151855 32.4881 0.151855C33.7456 0.151855 35.1213 0.684861 35.961 1.88087C36.9105 3.21122 36.7163 5.1439 36.7163 6.83826L36.7121 16.818C36.7121 17.1344 36.4547 17.39 36.134 17.39H33.138C32.8384 17.3684 32.5978 17.1214 32.5978 16.818V8.43727C32.5978 7.76993 32.6569 6.10592 32.5134 5.47324C32.2898 4.41157 31.6188 4.11256 30.7496 4.11256C30.0238 4.11256 29.2642 4.6109 28.9562 5.40824C28.6481 6.20558 28.6776 7.54026 28.6776 8.43727V16.818C28.6776 17.1344 28.4202 17.39 28.0995 17.39H25.1035C24.7997 17.3684 24.5634 17.1214 24.5634 16.818L24.5591 8.43727C24.5591 6.67359 24.8419 4.07789 22.7109 4.07789C20.5546 4.07789 20.639 6.60858 20.639 8.43727V16.818C20.639 17.1344 20.3815 17.39 20.0608 17.39" fill="black"/>
<path fill-rule="evenodd" clip-rule="evenodd" d="M75.513 0.151855C79.9649 0.151855 82.3744 4.0779 82.3744 9.06995C82.3744 13.893 79.7117 17.7194 75.513 17.7194C71.1413 17.7194 68.7614 13.7933 68.7614 8.90095C68.7614 3.97823 71.1709 0.151855 75.513 0.151855ZM75.5383 3.38022C73.3272 3.38022 73.1879 6.47425 73.1879 8.40261C73.1879 10.3353 73.1584 14.4607 75.513 14.4607C77.8381 14.4607 77.9478 11.1326 77.9478 9.10461C77.9478 7.76994 77.893 6.17525 77.5005 4.9099C77.163 3.80923 76.492 3.38022 75.5383 3.38022Z" fill="black"/>
<path fill-rule="evenodd" clip-rule="evenodd" d="M88.1472 17.39H85.1596C84.86 17.3684 84.6194 17.1214 84.6194 16.818L84.6152 1.0012C84.6406 0.710861 84.8895 0.485526 85.1933 0.485526H87.9742C88.2358 0.498518 88.451 0.680529 88.5101 0.927531V3.34555H88.565C89.4047 1.1832 90.582 0.151855 92.6539 0.151855C94 0.151855 95.3124 0.650195 96.1563 2.01521C96.9412 3.28055 96.9412 5.40824 96.9412 6.93792V16.8917C96.9075 17.169 96.6585 17.39 96.3631 17.39H93.3544C93.0801 17.3684 92.8523 17.1604 92.8227 16.8917V8.30294C92.8227 6.57392 93.0168 4.04323 90.9449 4.04323C90.2149 4.04323 89.5439 4.5459 89.2106 5.30857C88.7886 6.27492 88.7337 7.23693 88.7337 8.30294V16.818C88.7295 17.1344 88.4679 17.39 88.1472 17.39" fill="black"/>
<path fill-rule="evenodd" clip-rule="evenodd" d="M48.1732 9.83677C48.1732 11.0371 48.2028 12.0381 47.612 13.1041C47.1352 13.9708 46.3756 14.5038 45.5359 14.5038C44.3839 14.5038 43.7087 13.6025 43.7087 12.2721C43.7087 9.6461 46 9.16943 48.1732 9.16943V9.83677ZM51.1988 17.3465C51.0005 17.5285 50.7135 17.5415 50.4899 17.4202C49.494 16.5708 49.3126 16.1765 48.7682 15.3662C47.1225 17.0908 45.9536 17.6065 43.8226 17.6065C41.295 17.6065 39.3328 16.0075 39.3328 12.8051C39.3328 10.3048 40.6493 8.60176 42.5314 7.76975C44.1602 7.03307 46.4347 6.90307 48.1732 6.69941V6.30073C48.1732 5.56839 48.2281 4.70171 47.8061 4.06905C47.4432 3.50137 46.7427 3.26737 46.1224 3.26737C44.9788 3.26737 43.9619 3.86971 43.7129 5.11772C43.6623 5.39506 43.4639 5.66806 43.1897 5.68106L40.2822 5.36039C40.0375 5.30406 39.7632 5.10039 39.8349 4.71472C40.5016 1.09201 43.6918 0 46.5444 0C48.0044 0 49.9118 0.398672 51.0638 1.53402C52.5238 2.9337 52.3846 4.80138 52.3846 6.83374V11.6351C52.3846 13.0781 52.9669 13.7108 53.5155 14.4908C53.7054 14.7682 53.7476 15.1018 53.5028 15.3098C52.8909 15.8342 51.8022 16.8092 51.203 17.3552L51.1988 17.3465" fill="black"/>
<path fill-rule="evenodd" clip-rule="evenodd" d="M8.84046 9.83677C8.84046 11.0371 8.86999 12.0381 8.27922 13.1041C7.80238 13.9708 7.04704 14.5038 6.20309 14.5038C5.05108 14.5038 4.38014 13.6025 4.38014 12.2721C4.38014 9.6461 6.67148 9.16943 8.84046 9.16943V9.83677ZM11.866 17.3465C11.6677 17.5285 11.3808 17.5415 11.1571 17.4202C10.1612 16.5708 9.98401 16.1765 9.43544 15.3662C7.78973 17.0908 6.62507 17.6065 4.48985 17.6065C1.96642 17.6065 0 16.0075 0 12.8051C0 10.3048 1.32079 8.60176 3.1986 7.76975C4.82744 7.03307 7.1019 6.90307 8.84046 6.6994V6.30073C8.84046 5.56839 8.89531 4.70171 8.47755 4.06904C8.11043 3.50137 7.40995 3.26737 6.79386 3.26737C5.6503 3.26737 4.62911 3.86971 4.38014 5.11772C4.3295 5.39506 4.13117 5.66806 3.86111 5.68106L0.949452 5.36039C0.704704 5.30406 0.434637 5.10038 0.502154 4.71472C1.1731 1.09201 4.35904 0 7.21162 0C8.67166 0 10.579 0.398672 11.731 1.53402C13.1911 2.9337 13.0518 4.80138 13.0518 6.83374V11.6351C13.0518 13.0781 13.6341 13.7108 14.1827 14.4908C14.3768 14.7682 14.419 15.1018 14.1743 15.3098C13.5624 15.8342 12.4737 16.8092 11.8745 17.3552L11.866 17.3465" fill="black"/>
</g>
<defs>
<clipPath id="clip0_106_964">
<rect width="96.9412" height="30" fill="white"/>
</clipPath>
</defs>
</svg>
