<svg width="91" height="30" viewBox="0 0 91 30" fill="none" xmlns="http://www.w3.org/2000/svg">
<g clip-path="url(#clip0_106_992)">
<path d="M38.8139 15.385C38.8139 19.5491 35.53 22.6176 31.4999 22.6176C27.4698 22.6176 24.1859 19.5491 24.1859 15.385C24.1859 11.1915 27.4698 8.15234 31.4999 8.15234C35.53 8.15234 38.8139 11.1915 38.8139 15.385ZM35.6122 15.385C35.6122 12.7828 33.7089 11.0023 31.4999 11.0023C29.2909 11.0023 27.3876 12.7828 27.3876 15.385C27.3876 17.961 29.2909 19.7676 31.4999 19.7676C33.7089 19.7676 35.6122 17.9578 35.6122 15.385Z" fill="#EA4335"/>
<path d="M54.5924 15.385C54.5924 19.5491 51.3085 22.6176 47.2784 22.6176C43.2483 22.6176 39.9644 19.5491 39.9644 15.385C39.9644 11.1947 43.2483 8.15234 47.2784 8.15234C51.3085 8.15234 54.5924 11.1915 54.5924 15.385ZM51.3906 15.385C51.3906 12.7828 49.4874 11.0023 47.2784 11.0023C45.0694 11.0023 43.1661 12.7828 43.1661 15.385C43.1661 17.961 45.0694 19.7676 47.2784 19.7676C49.4874 19.7676 51.3906 17.9578 51.3906 15.385Z" fill="#FBBC05"/>
<path d="M69.7136 8.5893V21.5741C69.7136 26.9154 66.5382 29.0969 62.7842 29.0969C59.2505 29.0969 57.1236 26.7523 56.3216 24.835L59.1091 23.6839C59.6055 24.861 60.8218 26.2502 62.7809 26.2502C65.1839 26.2502 66.673 24.7795 66.673 22.011V20.9708H66.5612C65.8446 21.848 64.464 22.6143 62.7218 22.6143C59.0762 22.6143 55.7365 19.4643 55.7365 15.411C55.7365 11.3284 59.0762 8.15234 62.7218 8.15234C64.4607 8.15234 65.8413 8.91865 66.5612 9.76973H66.673V8.59256H69.7136V8.5893ZM66.8998 15.411C66.8998 12.8643 65.1872 11.0023 63.0077 11.0023C60.7987 11.0023 58.948 12.8643 58.948 15.411C58.948 17.9317 60.7987 19.7676 63.0077 19.7676C65.1872 19.7676 66.8998 17.9317 66.8998 15.411Z" fill="#4285F4"/>
<path d="M74.7266 0.978027V22.1737H71.6038V0.978027H74.7266Z" fill="#34A853"/>
<path d="M86.8959 17.7652L89.381 19.4087C88.579 20.5859 86.6461 22.6141 83.3063 22.6141C79.1644 22.6141 76.0712 19.4381 76.0712 15.3815C76.0712 11.0804 79.1907 8.14893 82.948 8.14893C86.7316 8.14893 88.5822 11.1359 89.1871 12.75L89.5191 13.5718L79.7726 17.5761C80.5187 19.0272 81.6791 19.7674 83.3063 19.7674C84.9367 19.7674 86.0675 18.9718 86.8959 17.7652ZM79.2466 15.1631L85.7618 12.4794C85.4035 11.5761 84.3253 10.9468 83.0565 10.9468C81.4293 10.9468 79.1644 12.3718 79.2466 15.1631Z" fill="#EA4335"/>
<path d="M12.3652 13.5033V10.4348H22.7889C22.8908 10.9696 22.9434 11.6022 22.9434 12.287C22.9434 14.5892 22.309 17.4359 20.2644 19.4642C18.2756 21.5185 15.7346 22.6142 12.3685 22.6142C6.12942 22.6142 0.883057 17.5729 0.883057 11.3838C0.883057 5.19462 6.12942 0.15332 12.3685 0.15332C15.8201 0.15332 18.2789 1.4968 20.1263 3.24789L17.9436 5.4131C16.6189 4.18049 14.8241 3.2218 12.3652 3.2218C7.80918 3.2218 4.24586 6.86419 4.24586 11.3838C4.24586 15.9033 7.80918 19.5457 12.3652 19.5457C15.3204 19.5457 17.0035 18.3685 18.0817 17.299C18.9561 16.4316 19.5313 15.1925 19.7581 13.5001L12.3652 13.5033Z" fill="#4285F4"/>
</g>
<defs>
<clipPath id="clip0_106_992">
<rect width="89.4118" height="30" fill="white" transform="translate(0.764648)"/>
</clipPath>
</defs>
</svg>
