<svg width="94" height="32" viewBox="0 0 94 32" fill="none" xmlns="http://www.w3.org/2000/svg">
<path fill-rule="evenodd" clip-rule="evenodd" d="M82.1775 14.9133L76.3072 25.0705L71.2987 25.0904L82.1775 5.97236L93.0156 25.0904H87.9278L82.1775 14.9123V14.9133ZM66.3705 20.6687H71.98L69.3756 25.0904H62.0642L62.0841 19.7065V6.0899H66.3914L66.3715 20.6687H66.3705ZM50.9861 6.09089C56.3347 6.11082 60.6619 10.3542 60.642 15.5996C60.6222 20.8261 56.2951 25.0705 50.9454 25.0705C45.6166 25.0505 41.2895 20.8072 41.2895 15.5608C41.3093 10.3343 45.6364 6.09089 50.9861 6.09089ZM50.9662 20.6498C53.8305 20.6498 56.1334 18.3897 56.1334 15.5996C56.1542 12.8105 53.8305 10.5305 50.9861 10.5305C48.1407 10.5106 45.8169 12.7906 45.8169 15.5807C45.7971 18.3697 48.1208 20.6498 50.9653 20.6498H50.9662ZM33.3166 14.0905C33.2571 13.3036 33.0557 12.2627 32.7552 11.2616C32.1369 9.19385 31.0619 7.29289 29.6103 5.70043C28.8486 4.87566 27.9878 4.10867 26.7044 3.20521C25.7261 2.72031 24.7642 2.20272 23.8203 1.6533C23.1995 1.29968 22.4576 0.866382 21.4767 0.552613C20.3137 0.276896 19.1249 0.125642 17.9301 0.101382C16.7698 0.0615386 15.6064 0.161148 14.4847 0.376304C13.3025 0.572535 12.3207 0.886304 11.0184 1.20107C8.07287 2.47806 5.7898 4.40351 3.82608 6.95849C-3.02512 16.5658 3.16556 30.025 14.6047 31.6158C16.4881 31.8718 18.3715 31.7732 20.1537 31.3608L21.4162 31.0271C21.4559 31.0072 21.5164 30.9873 21.5561 30.9873L22.9991 30.4374C23.0785 30.3976 23.139 30.3777 23.2193 30.3388L23.8203 30.0639C24.9735 29.4923 26.056 28.7869 27.0456 27.9621C26.1448 28.7842 25.165 29.5146 24.1208 30.1426L24.1803 30.1824C24.3817 30.1227 24.5612 30.0639 24.7615 30.025C24.7615 30.025 24.7615 30.3388 24.7218 30.28C24.4015 30.5161 24.9023 30.3 25.543 29.9653C26.1847 29.6316 26.8056 29.2182 27.3659 28.747C28.1881 28.0597 28.9091 27.3127 29.9307 26.0954C30.972 24.2676 32.2752 22.6759 32.8762 20.5343C33.0766 19.9645 33.2561 19.2971 33.3771 18.6088C33.4961 17.9215 33.5774 17.2143 33.5774 16.4871C33.5576 15.76 33.4772 15.0129 33.3166 14.0905ZM18.4915 30.2412C21.9974 29.6903 24.942 27.746 27.3461 25.0934C28.0076 24.1302 28.5283 23.2456 29.169 22.2834C29.9703 20.3181 29.9108 18.57 30.1707 17.3328C30.492 15.0916 29.7303 13.2847 29.0896 11.3592C28.1078 9.11902 26.8056 7.44957 24.5215 6.15265C18.7513 2.57668 10.8984 3.57775 7.1525 8.92279C7.13267 8.92279 7.0315 9.06025 6.83117 9.33517C7.092 8.23549 7.75352 7.58703 8.41404 6.9575C10.3778 5.34681 12.6618 4.06882 15.2662 3.44128C18.2118 3.12652 21.1356 3.44128 23.7598 4.71828C27.6873 6.9575 30.2917 10.4757 30.9522 14.6394V18.4913C30.131 24.7985 24.7218 29.5927 18.4915 30.2412ZM32.8961 15.8974C32.7552 6.66365 23.6001 0.435074 14.6851 1.69314C12.0806 2.3406 9.23523 3.63752 7.21201 5.44543C6.23015 6.09289 5.76996 7.29218 4.7881 8.25441C0.860666 14.0118 1.54301 21.3799 6.43049 25.8604C7.05742 26.4829 7.72684 27.0607 8.43388 27.5896C4.34775 25.1322 2.50404 21.4178 1.86335 16.9005C1.86335 15.2888 2.1837 13.6971 2.52388 12.0864C4.80893 5.03205 12.0003 -0.0958442 19.8344 1.20107C21.1366 1.51584 22.4388 1.84953 23.7618 2.16429C25.4042 2.81175 27.0267 3.77498 28.3289 5.05296C29.6311 6.32896 30.613 7.94064 31.5949 9.5314C32.2554 10.8094 32.5767 12.4201 32.8971 13.6971C32.9566 14.4242 32.9566 15.1713 32.8971 15.8984L32.8961 15.8974Z" fill="black"/>
<path fill-rule="evenodd" clip-rule="evenodd" d="M24.7623 16.036C24.7623 20.0054 21.4369 23.2278 17.33 23.2278C13.224 23.2278 9.89758 20.0054 9.89758 16.036C9.89758 12.0676 13.223 8.84521 17.33 8.84521C21.4369 8.84521 24.7623 12.0676 24.7623 16.037V16.036Z" fill="white"/>
<path fill-rule="evenodd" clip-rule="evenodd" d="M24.803 14.8176C24.7028 14.2678 24.5422 13.8355 24.3825 13.2268C23.7408 11.8901 22.7996 10.8492 21.5569 9.96464C16.9094 6.88074 10.5184 9.8471 9.83806 15.1135C9.57822 17.1963 10.3191 19.2004 11.6411 20.7334C11.2404 20.32 10.8001 19.8887 10.4996 19.3967L10.4599 19.4365C10.4996 19.554 10.6602 19.6327 10.6999 19.7503C10.6999 19.7503 10.5392 19.7503 10.5799 19.7303C10.4599 19.5939 10.5601 19.81 10.7396 20.1039C10.9003 20.3987 11.1006 20.6746 11.3406 20.9296C11.6818 21.3032 12.0418 21.6369 12.6428 22.0891C13.5255 22.5403 14.306 23.13 15.3275 23.4049C15.6082 23.4846 15.9286 23.5623 16.2499 23.6211C16.5901 23.6809 16.9104 23.7008 17.2714 23.7008C17.6116 23.7008 17.9726 23.6609 18.413 23.5812C18.8671 23.5275 19.3159 23.4359 19.7548 23.3073C20.7353 23.0109 21.6385 22.5007 22.3999 21.8132C22.7808 21.4606 23.3223 21.0083 23.7418 20.4186C24.083 19.7513 24.1226 19.4166 24.2833 19.1217C24.443 18.8269 24.6433 18.4932 24.7841 18.041C24.8989 17.5045 24.966 16.9588 24.9845 16.4104C24.9647 15.8605 24.925 15.3296 24.804 14.8186L24.803 14.8176ZM20.0345 11.1639C20.7159 11.5564 20.816 11.6152 20.455 11.3602C20.9767 11.4777 21.2971 11.7726 21.6174 12.0674C22.3989 12.9519 23.0396 13.9928 23.36 15.1911C23.5405 16.5468 23.3996 17.9025 22.8194 19.1018C21.7781 20.9286 20.1149 22.1469 18.1313 22.4806C17.9111 22.4806 17.6711 22.4806 17.45 22.5005C18.0113 22.4019 18.3723 22.0483 19.3938 21.6747C20.4947 21.2823 21.7374 19.4554 22.3394 18.3936C24.1018 15.5049 22.0181 12.8334 20.0345 11.1639ZM16.2687 22.5194C13.224 22.2056 10.8794 19.7104 10.5591 16.8218C10.8388 18.4334 11.8008 19.6706 13.103 20.7713C13.5642 21.0661 14.2445 21.4785 14.7057 21.7733C15.4872 22.0682 15.9474 22.3829 16.7091 22.5204H16.2687V22.5194ZM24.4618 17.274C24.323 17.8836 24.1821 18.4723 24.0413 19.0819C23.7408 19.829 23.3004 20.595 22.6994 21.2036C22.0984 21.8132 21.3367 22.2843 20.576 22.7366C19.975 23.0503 19.2133 23.2077 18.5925 23.3641C18.2315 23.4039 17.811 23.2466 17.45 23.2276C21.8981 23.1091 24.9428 18.9644 24.2823 14.8575C23.961 13.6592 23.3203 12.6172 22.5388 11.5763C22.2184 11.1241 21.5966 10.8492 21.1364 10.3969C18.3515 8.6488 14.666 9.00242 12.5625 11.3014C12.2675 11.6035 11.9928 11.925 11.7403 12.2636C12.863 10.6131 14.666 9.45464 16.8291 9.11996C17.5908 9.10003 18.3723 9.23849 19.133 9.37595C22.4991 10.3969 25.0033 13.6592 24.4618 17.275V17.274Z" fill="#D7DF23"/>
</svg>
