<svg width="20" height="20" viewBox="0 0 20 20" fill="none" xmlns="http://www.w3.org/2000/svg">
<path d="M9 9.00003H11H15V11H11H9H5V9.00003H9ZM10 20C4.477 20 0 15.523 0 10C0 4.47703 4.477 2.67018e-05 10 2.67018e-05C15.523 2.67018e-05 20 4.47703 20 10C20 15.523 15.523 20 10 20ZM10 18C12.1217 18 14.1566 17.1572 15.6569 15.6569C17.1571 14.1566 18 12.1218 18 10C18 7.87829 17.1571 5.84346 15.6569 4.34317C14.1566 2.84288 12.1217 2.00003 10 2.00003C7.87827 2.00003 5.84344 2.84288 4.34315 4.34317C2.84285 5.84346 2 7.87829 2 10C2 12.1218 2.84285 14.1566 4.34315 15.6569C5.84344 17.1572 7.87827 18 10 18Z" fill="#F48020"/>
</svg>
