<svg width="13" height="13" viewBox="0 0 13 13" fill="none" xmlns="http://www.w3.org/2000/svg">
<path d="M12.125 4V12.1206C12.1256 12.2027 12.11 12.2841 12.0791 12.3601C12.0482 12.4362 12.0027 12.5054 11.945 12.5639C11.8874 12.6223 11.8188 12.6688 11.7432 12.7008C11.6676 12.7327 11.5865 12.7494 11.5044 12.75H1.49563C1.33113 12.75 1.17337 12.6847 1.057 12.5684C0.940626 12.4522 0.875166 12.2945 0.875 12.13V0.87C0.875 0.534375 1.15562 0.25 1.50125 0.25H8.37313L12.125 4ZM10.875 4.625H7.75V1.5H2.125V11.5H10.875V4.625ZM4 3.375H5.875V4.625H4V3.375ZM4 5.875H9V7.125H4V5.875ZM4 8.375H9V9.625H4V8.375Z" fill="#4478BB"/>
</svg>
