<svg width="25" height="26" viewBox="0 0 25 26" fill="none" xmlns="http://www.w3.org/2000/svg">
<path d="M1.83 7.3875C2.87001 5.31655 4.46547 3.57564 6.43804 2.35934C8.41062 1.14303 10.6826 0.499271 13 0.500001C16.3688 0.500001 19.1988 1.7375 21.3625 3.75625L17.7788 7.34125C16.4825 6.1025 14.835 5.47125 13 5.47125C9.74375 5.47125 6.9875 7.67125 6.00625 10.625C5.75625 11.375 5.61375 12.175 5.61375 13C5.61375 13.825 5.75625 14.625 6.00625 15.375C6.98875 18.33 9.74375 20.5288 13 20.5288C14.6813 20.5288 16.1125 20.085 17.2325 19.335C17.8818 18.9075 18.4377 18.3528 18.8665 17.7044C19.2953 17.056 19.5882 16.3273 19.7275 15.5625H13V10.7275H24.7725C24.92 11.545 25 12.3975 25 13.2838C25 17.0913 23.6375 20.2962 21.2725 22.4712C19.205 24.3813 16.375 25.5 13 25.5C11.3583 25.5007 9.73255 25.1778 8.21568 24.5498C6.69881 23.9219 5.32056 23.0012 4.1597 21.8403C2.99884 20.6794 2.07812 19.3012 1.45017 17.7843C0.822217 16.2675 0.499344 14.6417 0.500001 13C0.500001 10.9825 0.982501 9.075 1.83 7.3875Z" fill="black"/>
</svg>
